# xmcd CD database file
#
# Track frame offsets:
#	150
#	17177
#	36627
#	54269
#	77972
#	98819
#	122829
#	131972
#	147319
#	166659
#	182129
#	193119
#	218941
#
# Disc length: 3185 seconds
#
# Revision: 0
# Processed by: cddbd v1.5.2PL0 Copyright (c) Steve Scherf et al.
# Submitted via: CDex 1.70beta2
#
DISCID=c20c6f0d
DTITLE=Joe Bonamassa - Black Rock
DYEAR=2010
DGENRE=Blues
TTITLE0=Steal Your Heart Away
TTITLE1=I Know A Place
TTITLE2=When The Fire Hits The Sea
TTITLE3=Quarryman's Lament
TTITLE4=Spanish Boots
TTITLE5=Bird On A Wire
TTITLE6=Three Times A Fool
TTITLE7=Night Life
TTITLE8=Wandering Earth
TTITLE9=Look On Yonder Wall
TTITLE10=Athens To Athens
TTITLE11=Blue And Evil
TTITLE12=Baby You Gotta Change Your Mind
EXTD=YEAR: 2010
EXTT0=
EXTT1=
EXTT2=
EXTT3=
EXTT4=
EXTT5=
EXTT6=
EXTT7=
EXTT8=
EXTT9=
EXTT10=
EXTT11=
EXTT12=
PLAYORDER=
